<mxfile host="Electron" agent="Mozilla/5.0 (Macintosh; Intel Mac OS X 10_15_7) AppleWebKit/537.36 (KHTML, like Gecko) draw.io/25.0.1 Chrome/128.0.6613.186 Electron/32.2.6 Safari/537.36" version="25.0.1">
  <diagram id="C5RBs43oDa-KdzZeNtuy" name="Page-1">
    <mxGraphModel dx="1122" dy="855" grid="1" gridSize="10" guides="1" tooltips="1" connect="1" arrows="1" fold="1" page="1" pageScale="1" pageWidth="827" pageHeight="1169" math="0" shadow="0">
      <root>
        <mxCell id="WIyWlLk6GJQsqaUBKTNV-0" />
        <mxCell id="WIyWlLk6GJQsqaUBKTNV-1" parent="WIyWlLk6GJQsqaUBKTNV-0" />
        <mxCell id="biE97ZQsbucVwfuxJKgN-23" value="" style="edgeStyle=orthogonalEdgeStyle;rounded=0;orthogonalLoop=1;jettySize=auto;html=1;" edge="1" parent="WIyWlLk6GJQsqaUBKTNV-1" source="biE97ZQsbucVwfuxJKgN-0" target="biE97ZQsbucVwfuxJKgN-17">
          <mxGeometry relative="1" as="geometry" />
        </mxCell>
        <mxCell id="biE97ZQsbucVwfuxJKgN-0" value="Linkage Study" style="swimlane;whiteSpace=wrap;html=1;" vertex="1" parent="WIyWlLk6GJQsqaUBKTNV-1">
          <mxGeometry x="320" y="155" width="190" height="430" as="geometry" />
        </mxCell>
        <mxCell id="biE97ZQsbucVwfuxJKgN-3" value="" style="edgeStyle=orthogonalEdgeStyle;rounded=0;orthogonalLoop=1;jettySize=auto;html=1;" edge="1" parent="biE97ZQsbucVwfuxJKgN-0" source="biE97ZQsbucVwfuxJKgN-1" target="biE97ZQsbucVwfuxJKgN-2">
          <mxGeometry relative="1" as="geometry" />
        </mxCell>
        <mxCell id="biE97ZQsbucVwfuxJKgN-1" value="Linkage Schematic" style="rounded=1;whiteSpace=wrap;html=1;" vertex="1" parent="biE97ZQsbucVwfuxJKgN-0">
          <mxGeometry x="34" y="50" width="120" height="60" as="geometry" />
        </mxCell>
        <mxCell id="biE97ZQsbucVwfuxJKgN-5" value="" style="edgeStyle=orthogonalEdgeStyle;rounded=0;orthogonalLoop=1;jettySize=auto;html=1;" edge="1" parent="biE97ZQsbucVwfuxJKgN-0" source="biE97ZQsbucVwfuxJKgN-2" target="biE97ZQsbucVwfuxJKgN-4">
          <mxGeometry relative="1" as="geometry" />
        </mxCell>
        <mxCell id="biE97ZQsbucVwfuxJKgN-2" value="Linkage Codes" style="whiteSpace=wrap;html=1;rounded=1;" vertex="1" parent="biE97ZQsbucVwfuxJKgN-0">
          <mxGeometry x="34" y="190" width="120" height="60" as="geometry" />
        </mxCell>
        <mxCell id="biE97ZQsbucVwfuxJKgN-4" value="Linkage" style="rounded=1;whiteSpace=wrap;html=1;" vertex="1" parent="biE97ZQsbucVwfuxJKgN-0">
          <mxGeometry x="34" y="330" width="120" height="60" as="geometry" />
        </mxCell>
        <mxCell id="biE97ZQsbucVwfuxJKgN-29" style="edgeStyle=orthogonalEdgeStyle;rounded=0;orthogonalLoop=1;jettySize=auto;html=1;exitX=1;exitY=0.5;exitDx=0;exitDy=0;entryX=0;entryY=0.5;entryDx=0;entryDy=0;" edge="1" parent="WIyWlLk6GJQsqaUBKTNV-1" source="biE97ZQsbucVwfuxJKgN-17" target="biE97ZQsbucVwfuxJKgN-28">
          <mxGeometry relative="1" as="geometry" />
        </mxCell>
        <mxCell id="biE97ZQsbucVwfuxJKgN-17" value="Composition" style="swimlane;whiteSpace=wrap;html=1;" vertex="1" parent="WIyWlLk6GJQsqaUBKTNV-1">
          <mxGeometry x="590" y="155" width="190" height="430" as="geometry" />
        </mxCell>
        <mxCell id="biE97ZQsbucVwfuxJKgN-18" value="" style="edgeStyle=orthogonalEdgeStyle;rounded=0;orthogonalLoop=1;jettySize=auto;html=1;" edge="1" parent="biE97ZQsbucVwfuxJKgN-17" source="biE97ZQsbucVwfuxJKgN-19" target="biE97ZQsbucVwfuxJKgN-21">
          <mxGeometry relative="1" as="geometry" />
        </mxCell>
        <mxCell id="biE97ZQsbucVwfuxJKgN-19" value="Composition Schematic" style="rounded=1;whiteSpace=wrap;html=1;" vertex="1" parent="biE97ZQsbucVwfuxJKgN-17">
          <mxGeometry x="34" y="50" width="120" height="60" as="geometry" />
        </mxCell>
        <mxCell id="biE97ZQsbucVwfuxJKgN-20" value="" style="edgeStyle=orthogonalEdgeStyle;rounded=0;orthogonalLoop=1;jettySize=auto;html=1;" edge="1" parent="biE97ZQsbucVwfuxJKgN-17" source="biE97ZQsbucVwfuxJKgN-21" target="biE97ZQsbucVwfuxJKgN-22">
          <mxGeometry relative="1" as="geometry" />
        </mxCell>
        <mxCell id="biE97ZQsbucVwfuxJKgN-21" value="Composition Codes" style="whiteSpace=wrap;html=1;rounded=1;" vertex="1" parent="biE97ZQsbucVwfuxJKgN-17">
          <mxGeometry x="34" y="190" width="120" height="60" as="geometry" />
        </mxCell>
        <mxCell id="biE97ZQsbucVwfuxJKgN-22" value="Composition" style="rounded=1;whiteSpace=wrap;html=1;" vertex="1" parent="biE97ZQsbucVwfuxJKgN-17">
          <mxGeometry x="34" y="330" width="120" height="60" as="geometry" />
        </mxCell>
        <mxCell id="biE97ZQsbucVwfuxJKgN-27" style="edgeStyle=orthogonalEdgeStyle;rounded=0;orthogonalLoop=1;jettySize=auto;html=1;exitX=1;exitY=0.5;exitDx=0;exitDy=0;entryX=0;entryY=0.5;entryDx=0;entryDy=0;" edge="1" parent="WIyWlLk6GJQsqaUBKTNV-1" source="biE97ZQsbucVwfuxJKgN-26" target="biE97ZQsbucVwfuxJKgN-0">
          <mxGeometry relative="1" as="geometry" />
        </mxCell>
        <mxCell id="biE97ZQsbucVwfuxJKgN-26" value="Proposal" style="rounded=1;whiteSpace=wrap;html=1;" vertex="1" parent="WIyWlLk6GJQsqaUBKTNV-1">
          <mxGeometry x="130" y="340" width="120" height="60" as="geometry" />
        </mxCell>
        <mxCell id="biE97ZQsbucVwfuxJKgN-28" value="Overview" style="rounded=1;whiteSpace=wrap;html=1;" vertex="1" parent="WIyWlLk6GJQsqaUBKTNV-1">
          <mxGeometry x="827" y="340" width="120" height="60" as="geometry" />
        </mxCell>
      </root>
    </mxGraphModel>
  </diagram>
</mxfile>
